<?xml version="1.0" encoding="UTF-8"?> <svg xmlns="http://www.w3.org/2000/svg" xmlns:xlink="http://www.w3.org/1999/xlink" width="887px" height="522px" viewBox="0 0 887 522"><!-- Generator: Sketch 52.6 (67491) - http://www.bohemiancoding.com/sketch --><title>Everyone_10</title><desc>Created with Sketch.</desc><g id="Page-1" stroke="none" stroke-width="1" fill="none" fill-rule="evenodd"><g id="Everyone_01"><g id="Everyone_10"><g id="Group"><g><g><rect id="Rectangle" fill="#231F20" x="2.6" y="3.1" width="880.4" height="418.3"></rect><path d="M880.4,5.4 L880.4,419.2 L5.1,419.2 L5.1,5.4 L880.4,5.4 Z M885.5,0.8 L880.4,0.8 L5.1,0.8 L0,0.8 L0,5.3 L0,419.1 L0,423.6 L5.1,423.6 L886,423.6 L886,0.8 L885.5,0.8 Z" id="Shape" fill="#FFFFFF" fill-rule="nonzero"></path></g><rect id="Rectangle" fill="#FFFFFF" x="17.9" y="20.1" width="244.2" height="68.6"></rect><rect id="Rectangle" fill="#FFFFFF" x="17.8" y="103.7" width="244.3" height="252.3"></rect><g transform="translate(17.000000, 369.000000)" fill="#FFFFFF"><polygon id="Path" points="0.9 35.3 0.9 1.8 49.9 1.8 49.9 9.6 20.6 9.6 20.6 14.4 45.4 14.4 45.4 22.2 20.6 22.2 20.6 27.4 51 27.4 51 35.3"></polygon><path d="M92.7,11.5 C92.4,10.4 91.3,9.6 89.8,9.2 C88.4,8.8 86.7,8.6 84.7,8.6 C80.4,8.6 78.4,9.3 78.4,10.5 C78.4,15.5 113,12.3 113,24.5 C113,32.3 101.4,36 84.9,36 C69,36 58.7,30.8 58.3,24.8 L77.2,24.8 C77.6,26 78.8,26.9 80.5,27.4 C82.1,27.9 84.2,28.2 86.1,28.2 C91,28.2 94.3,27.3 94.3,25.7 C94.3,20.6 59.7,24.1 59.7,11.3 C59.7,4.2 70.7,0.6 85.8,0.6 C102.5,0.6 110.1,5.3 111.5,11.2 L92.7,11.2 L92.7,11.5 Z" id="Path"></path><path d="M142.6,16.3 L150.3,16.3 C156.4,16.3 159.7,15.4 159.7,13.1 C159.7,10.8 156.4,9.6 151.8,9.6 L142.6,9.6 L142.6,16.3 Z M142.6,23.6 L142.6,35.3 L122.9,35.3 L122.9,1.8 L151.3,1.8 C171.3,1.8 177.9,4.9 177.9,11.4 C177.9,15.3 174.8,18.5 167.8,19.6 C174.1,20.9 178,21.7 178,28.4 C178,32.8 177.7,34.3 180.1,34.3 L180.1,35.3 L160.1,35.3 C159.6,34.6 159.1,32.4 159.1,29.5 C159.1,25.1 157.8,23.7 148.6,23.7 L142.6,23.7 L142.6,23.6 Z" id="Shape" fill-rule="nonzero"></path><path d="M209.7,9.6 L209.7,15.2 L217.9,15.2 C221.8,15.2 224.7,14.2 224.7,12.3 C224.7,9.7 220.8,9.6 216.7,9.6 L209.7,9.6 Z M209.7,21.3 L209.7,27.5 L218.3,27.5 C223.2,27.5 226.8,26.9 226.8,24.4 C226.8,21.5 222.2,21.3 215.9,21.3 L209.7,21.3 Z M190.1,35.3 L190.1,1.8 L218.8,1.8 C232.3,1.8 243.1,3.6 243.1,10.2 C243.1,13.7 239.1,16.2 235.2,17.5 C241.7,18.4 245.2,21.6 245.2,25.2 C245.2,32.7 235,35.3 219.3,35.3 L190.1,35.3 Z" id="Shape" fill-rule="nonzero"></path></g><rect id="Rectangle" fill="#FFFFFF" x="277" y="20" width="588.9" height="384.3"></rect><g transform="translate(36.000000, 118.000000)" fill="#231F20"><path d="M119.3,176.5 L108.8,176.5 L108.8,182.3 L119.3,182.3 L119.3,192.5 L125.3,192.5 L125.3,182.3 L135.9,182.3 L135.9,176.5 L125.3,176.5 L125.3,166.2 L119.3,166.2 L119.3,176.5 Z M102.5,173.9 C102.5,153.5 91.6,141.5 73.5,141.5 C49,141.5 43,158.2 43,173.9 C43,193.1 52.6,206.3 72.8,206.3 C92.8,206.4 102.5,193.1 102.5,173.9 Z M0,44.4 L148.2,0.2 L163,47.1 L88.8,69.2 L94.9,88.4 L163.5,68 L178.3,114.9 L109.8,135.3 L116.2,155.5 L192.9,132.6 L207.8,179.5 L57.2,224.5 L0,44.4 Z M5.6,163.1 C12.8,161 20.1,157.9 24,154.2 L24,203.3 L38,203.3 L38,141.8 L24.4,141.8 C19.3,146.2 14.1,148.7 5.6,151.2 L5.6,163.1 Z" id="Shape" fill-rule="nonzero"></path><path d="M55.7,173.4 C55.8,152.8 64,148.1 73.3,148.1 C83.7,148.1 89.7,156 89.6,174 C89.5,185.3 86.5,199 73.1,199 C60.1,198.9 55.7,188.4 55.7,173.4" id="Path"></path></g><g transform="translate(24.000000, 34.000000)" fill="#231F20"><polygon id="Path" points="0 40.1 0 1.4 15.3 1.4 15.3 7.4 5.9 7.4 5.9 16.9 14.6 16.9 14.6 22.8 5.9 22.8 5.9 34.1 15.6 34.1 15.6 40 0 40"></polygon><polygon id="Path" points="17.2 1.4 23.3 1.4 27.6 29.5 27.7 29.5 32.6 1.4 38.4 1.4 31 40.1 24.1 40.1"></polygon><polygon id="Path" points="41 40.1 41 1.4 56.3 1.4 56.3 7.4 46.9 7.4 46.9 16.9 55.6 16.9 55.6 22.8 46.9 22.8 46.9 34.1 56.6 34.1 56.6 40 41 40"></polygon><path d="M66.1,40.1 L60.2,40.1 L60.2,1.4 L71,1.4 C73,1.4 74.6,2.3 75.8,4 C77,5.7 77.6,8.2 77.6,11.5 C77.6,14 77.2,16.1 76.4,17.8 C75.6,19.5 74.3,20.6 72.4,21 L72.4,21.1 C72.7,21.2 73.1,21.3 73.7,21.4 C74.3,21.5 74.8,21.9 75.4,22.4 C76,22.9 76.4,23.6 76.8,24.6 C77.2,25.6 77.4,26.9 77.4,28.7 C77.4,29.3 77.4,30.2 77.4,31.3 C77.4,32.4 77.4,33.5 77.5,34.7 C77.6,35.9 77.6,37 77.7,38 C77.8,39 77.9,39.7 78,40.1 L72.3,40.1 C71.9,38.9 71.7,37.7 71.7,36.4 C71.7,35.1 71.7,33.8 71.7,32.6 C71.7,31.4 71.7,30.4 71.7,29.3 C71.7,28.3 71.6,27.4 71.3,26.6 C71.1,25.8 70.6,25.2 70.1,24.8 C69.5,24.3 68.7,24.1 67.6,24.1 L66.1,24.1 L66.1,40.1 Z M66.1,18.2 L68.7,18.2 C69.3,18.2 69.7,18 70.1,17.7 C70.5,17.4 70.8,16.9 71,16.3 C71.2,15.7 71.4,15.1 71.5,14.4 C71.6,13.7 71.6,13.1 71.6,12.5 C71.6,10.6 71.3,9.3 70.8,8.6 C70.3,7.8 69.6,7.5 68.6,7.5 L66,7.5 L66,18.2 L66.1,18.2 Z" id="Shape" fill-rule="nonzero"></path><polygon id="Path" points="86.5 26.7 79.2 1.4 85.6 1.4 89.8 17.7 94.3 1.4 100.3 1.4 92.5 26.7 92.5 40.1 86.6 40.1 86.6 26.7"></polygon><path d="M112.3,40.7 C109.9,40.7 108,40.1 106.7,39 C105.4,37.9 104.4,36.4 103.8,34.5 C103.2,32.6 102.9,30.5 102.8,28.1 C102.7,25.7 102.6,23.3 102.6,20.7 C102.6,18.1 102.7,15.7 102.8,13.3 C102.9,10.9 103.3,8.8 103.8,6.9 C104.4,5.1 105.4,3.6 106.7,2.4 C108,1.3 109.9,0.7 112.3,0.7 C114.7,0.7 116.6,1.3 117.9,2.4 C119.2,3.5 120.2,5 120.8,6.9 C121.4,8.8 121.7,10.9 121.8,13.3 C121.9,15.7 122,18.2 122,20.7 C122,23.2 121.9,25.7 121.8,28.1 C121.7,30.5 121.3,32.6 120.8,34.5 C120.2,36.4 119.3,37.9 117.9,39 C116.6,40.2 114.7,40.7 112.3,40.7 Z M112.3,35 C113.1,35 113.8,34.7 114.3,34.2 C114.8,33.6 115.2,32.8 115.4,31.7 C115.7,30.6 115.8,29.1 115.9,27.3 C116,25.5 116,23.4 116,20.9 C116,18.4 116,16.3 115.9,14.5 C115.8,12.7 115.7,11.2 115.4,10.1 C115.1,9 114.8,8.1 114.3,7.6 C113.8,7.1 113.2,6.8 112.3,6.8 C111.5,6.8 110.8,7.1 110.3,7.6 C109.8,8.2 109.4,9 109.2,10.1 C108.9,11.3 108.8,12.7 108.7,14.5 C108.6,16.3 108.6,18.4 108.6,20.9 C108.6,23.4 108.6,25.5 108.7,27.3 C108.8,29.1 109,30.6 109.2,31.7 C109.4,32.8 109.8,33.7 110.3,34.2 C110.8,34.7 111.5,35 112.3,35 Z" id="Shape" fill-rule="nonzero"></path><polygon id="Path" points="126.7 40.1 126.7 1.4 134.6 1.4 142 28.2 142.1 28.2 142.1 1.4 147.6 1.4 147.6 40.1 139.9 40.1 132.3 11.8 132.2 11.8 132.2 40.1"></polygon><polygon id="Path" points="152.5 40.1 152.5 1.4 167.8 1.4 167.8 7.4 158.4 7.4 158.4 16.9 167.1 16.9 167.1 22.8 158.4 22.8 158.4 34.1 168.1 34.1 168.1 40 152.5 40"></polygon><path d="M180,7.6 C181,6.8 181.9,6 182.8,5 C183.7,4 184.5,2.9 185.2,1.6 L190.4,1.6 L190.4,40.1 L184.6,40.1 L184.6,10.5 C183.9,11.4 183.2,12.1 182.4,12.8 C181.6,13.5 180.8,14.2 180,14.8 L180,7.6 Z" id="Path"></path><path d="M203.9,1.1 C205.5,1.1 206.9,1.4 207.9,2.1 C208.9,2.8 209.7,3.9 210.3,5.4 C210.9,6.9 211.2,9 211.4,11.5 C211.6,14 211.7,17.1 211.7,20.8 C211.7,23.8 211.6,26.5 211.5,29 C211.4,31.4 211,33.5 210.5,35.2 C210,36.9 209.2,38.3 208.1,39.2 C207.1,40.1 205.6,40.6 203.8,40.6 C202,40.6 200.5,40.1 199.5,39.2 C198.5,38.2 197.7,36.9 197.1,35.2 C196.6,33.5 196.3,31.4 196.1,29 C196,26.6 195.9,23.8 195.9,20.8 C195.9,17.1 196,14 196.2,11.5 C196.4,9 196.8,7 197.3,5.4 C197.8,3.9 198.7,2.8 199.7,2.1 C200.9,1.4 202.2,1.1 203.9,1.1 Z M203.9,6.7 C203.3,6.7 202.9,6.9 202.5,7.2 C202.2,7.6 202,8.3 201.8,9.3 C201.6,10.3 201.6,11.7 201.5,13.6 C201.5,15.4 201.5,17.9 201.5,20.8 C201.5,23.7 201.5,26.1 201.6,27.9 C201.6,29.7 201.8,31.2 201.9,32.2 C202.1,33.2 202.3,33.9 202.6,34.3 C202.9,34.7 203.3,34.9 203.9,34.9 C204.4,34.9 204.9,34.7 205.2,34.3 C205.5,33.9 205.8,33.2 205.9,32.2 C206.1,31.2 206.2,29.7 206.2,27.9 C206.2,26 206.3,23.7 206.3,20.8 C206.3,17.8 206.3,15.4 206.3,13.6 C206.3,11.8 206.2,10.3 206,9.3 C205.8,8.3 205.6,7.6 205.3,7.2 C204.9,6.9 204.5,6.7 203.9,6.7 Z" id="Shape" fill-rule="nonzero"></path><polygon id="Path" points="220.1 8.9 224.4 8.9 224.4 19.5 231 19.5 231 25.4 224.4 25.4 224.4 36 220.1 36 220.1 25.4 213.5 25.4 213.5 19.5 220.1 19.5"></polygon></g></g><g transform="translate(0.000000, 417.000000)"><rect id="Rectangle" fill="#FFFFFF" x="0.1" y="1.1" width="886" height="103.5"></rect><rect id="Rectangle" fill="#231F20" x="5.5" y="0.8" width="874.9" height="97.7"></rect><rect id="Rectangle" fill="#FFFFFF" x="11.6" y="6.7" width="863" height="85.7"></rect><path d="M314.9,28.6 L319.6,28.6 L319.6,49 C319.6,52.5 319.2,55.4 318.4,57.4 C317.6,59.5 316.2,61.2 314.1,62.5 C312,63.8 309.3,64.5 305.9,64.5 C302.6,64.5 299.9,63.9 297.8,62.8 C295.7,61.7 294.2,60 293.3,57.9 C292.4,55.7 292,52.8 292,49.1 L292,28.7 L296.7,28.7 L296.7,49 C296.7,52.1 297,54.3 297.6,55.8 C298.2,57.3 299.1,58.4 300.5,59.2 C301.9,60 303.6,60.4 305.6,60.4 C309,60.4 311.5,59.6 312.9,58.1 C314.4,56.5 315.1,53.6 315.1,49.1 L315.1,28.6 L314.9,28.6 Z" id="Path" fill="#231F20"></path><path d="M325.1,56.2 L329.4,55.5 C329.6,57.2 330.3,58.5 331.4,59.4 C332.5,60.3 334,60.8 336,60.8 C338,60.8 339.5,60.4 340.4,59.6 C341.4,58.8 341.8,57.8 341.8,56.8 C341.8,55.8 341.4,55.1 340.5,54.5 C339.9,54.1 338.4,53.6 336.1,53 C332.9,52.2 330.7,51.5 329.5,50.9 C328.3,50.3 327.3,49.5 326.7,48.5 C326.1,47.5 325.7,46.3 325.7,45.1 C325.7,44 326,42.9 326.5,41.9 C327,40.9 327.7,40.1 328.6,39.5 C329.3,39 330.2,38.6 331.4,38.2 C332.6,37.9 333.8,37.7 335.1,37.7 C337.1,37.7 338.9,38 340.4,38.6 C341.9,39.2 343,40 343.8,40.9 C344.5,41.9 345,43.2 345.3,44.9 L341.1,45.5 C340.9,44.2 340.3,43.2 339.4,42.4 C338.5,41.7 337.2,41.3 335.5,41.3 C333.5,41.3 332.1,41.6 331.2,42.3 C330.3,43 329.9,43.7 329.9,44.6 C329.9,45.2 330.1,45.7 330.4,46.1 C330.7,46.6 331.3,47 332.1,47.3 C332.5,47.5 333.8,47.8 335.9,48.4 C339,49.2 341.1,49.9 342.3,50.4 C343.5,50.9 344.5,51.7 345.2,52.7 C345.9,53.7 346.2,54.9 346.2,56.4 C346.2,57.8 345.8,59.2 344.9,60.5 C344.1,61.8 342.8,62.8 341.3,63.5 C339.7,64.2 337.9,64.5 335.9,64.5 C332.6,64.5 330,63.8 328.3,62.4 C326.7,61 325.6,58.9 325.1,56.2 Z" id="Path" fill="#231F20"></path><path d="M368.9,55.6 L373.4,56.2 C372.7,58.8 371.4,60.8 369.5,62.3 C367.6,63.7 365.2,64.5 362.2,64.5 C358.5,64.5 355.5,63.3 353.3,61 C351.1,58.7 350,55.5 350,51.3 C350,47 351.1,43.7 353.3,41.3 C355.5,38.9 358.4,37.7 361.9,37.7 C365.3,37.7 368.1,38.9 370.3,41.2 C372.5,43.5 373.5,46.8 373.5,51 L373.5,52.2 L354.5,52.2 C354.7,55 355.5,57.2 356.9,58.6 C358.3,60.1 360.1,60.8 362.2,60.8 C363.8,60.8 365.1,60.4 366.3,59.5 C367.4,58.8 368.3,57.5 368.9,55.6 Z M354.7,48.6 L369,48.6 C368.8,46.4 368.3,44.8 367.4,43.8 C366,42.1 364.2,41.3 362,41.3 C360,41.3 358.3,42 357,43.3 C355.6,44.6 354.9,46.4 354.7,48.6 Z" id="Shape" fill="#231F20" fill-rule="nonzero"></path><path d="M378.8,63.9 L378.8,38.4 L382.7,38.4 L382.7,42.3 C383.7,40.5 384.6,39.3 385.5,38.7 C386.3,38.1 387.3,37.8 388.3,37.8 C389.8,37.8 391.2,38.3 392.7,39.2 L391.2,43.2 C390.1,42.6 389.1,42.3 388,42.3 C387,42.3 386.2,42.6 385.5,43.2 C384.7,43.8 384.2,44.6 383.9,45.6 C383.4,47.1 383.2,48.8 383.2,50.7 L383.2,64.1 L378.8,64.1 L378.8,63.9 Z" id="Path" fill="#231F20"></path><path d="M393.5,56.2 L397.8,55.5 C398,57.2 398.7,58.5 399.8,59.4 C400.9,60.3 402.4,60.8 404.4,60.8 C406.4,60.8 407.9,60.4 408.8,59.6 C409.8,58.8 410.2,57.8 410.2,56.8 C410.2,55.8 409.8,55.1 408.9,54.5 C408.3,54.1 406.8,53.6 404.5,53 C401.3,52.2 399.1,51.5 397.9,50.9 C396.7,50.3 395.7,49.5 395.1,48.5 C394.5,47.5 394.1,46.3 394.1,45.1 C394.1,44 394.4,42.9 394.9,41.9 C395.4,40.9 396.1,40.1 397,39.5 C397.7,39 398.6,38.6 399.8,38.2 C401,37.9 402.2,37.7 403.5,37.7 C405.5,37.7 407.3,38 408.8,38.6 C410.3,39.2 411.4,40 412.2,40.9 C412.9,41.9 413.4,43.2 413.7,44.9 L409.5,45.5 C409.3,44.2 408.7,43.2 407.8,42.4 C406.9,41.7 405.6,41.3 403.9,41.3 C401.9,41.3 400.5,41.6 399.6,42.3 C398.7,43 398.3,43.7 398.3,44.6 C398.3,45.2 398.5,45.7 398.8,46.1 C399.1,46.6 399.7,47 400.5,47.3 C400.9,47.5 402.2,47.8 404.3,48.4 C407.4,49.2 409.5,49.9 410.7,50.4 C411.9,50.9 412.9,51.7 413.6,52.7 C414.3,53.7 414.6,54.9 414.6,56.4 C414.6,57.8 414.2,59.2 413.3,60.5 C412.5,61.8 411.2,62.8 409.7,63.5 C408.1,64.2 406.3,64.5 404.3,64.5 C401,64.5 398.4,63.8 396.7,62.4 C395.1,61 394,58.9 393.5,56.2 Z" id="Path" fill="#231F20"></path><rect id="Rectangle" fill="#231F20" x="434.9" y="28.6" width="4.7" height="35.3"></rect><path d="M447.2,63.9 L447.2,38.4 L451.1,38.4 L451.1,42 C453,39.2 455.7,37.8 459.2,37.8 C460.7,37.8 462.2,38.1 463.4,38.6 C464.7,39.2 465.7,39.9 466.3,40.8 C466.9,41.7 467.4,42.8 467.6,44 C467.8,44.8 467.8,46.2 467.8,48.2 L467.8,63.9 L463.5,63.9 L463.5,48.4 C463.5,46.6 463.3,45.3 463,44.4 C462.7,43.5 462.1,42.8 461.2,42.3 C460.3,41.8 459.3,41.5 458.2,41.5 C456.4,41.5 454.8,42.1 453.4,43.3 C452.1,44.5 451.4,46.7 451.4,50 L451.4,64 L447.2,64 L447.2,63.9 Z" id="Path" fill="#231F20"></path><path d="M484.1,60 L484.7,63.8 C483.5,64.1 482.4,64.2 481.4,64.2 C479.8,64.2 478.6,63.9 477.7,63.5 C476.8,63 476.2,62.3 475.9,61.5 C475.5,60.7 475.4,59 475.4,56.4 L475.4,41.7 L472.2,41.7 L472.2,38.3 L475.4,38.3 L475.4,32 L479.7,29.4 L479.7,38.3 L484.1,38.3 L484.1,41.7 L479.7,41.7 L479.7,56.6 C479.7,57.8 479.8,58.6 479.9,59 L480.6,59.8 C480.9,60 481.4,60.1 482.1,60.1 C482.7,60.2 483.3,60.1 484.1,60 Z" id="Path" fill="#231F20"></path><path d="M505.8,55.6 L510.3,56.2 C509.6,58.8 508.3,60.8 506.4,62.3 C504.5,63.7 502.1,64.5 499.1,64.5 C495.4,64.5 492.4,63.3 490.2,61 C488,58.7 486.9,55.5 486.9,51.3 C486.9,47 488,43.7 490.2,41.3 C492.4,38.9 495.3,37.7 498.8,37.7 C502.2,37.7 505,38.9 507.2,41.2 C509.4,43.5 510.4,46.8 510.4,51 L510.4,52.2 L491.4,52.2 C491.6,55 492.4,57.2 493.8,58.6 C495.2,60.1 497,60.8 499.1,60.8 C500.7,60.8 502,60.4 503.2,59.5 C504.3,58.8 505.1,57.5 505.8,55.6 Z M491.6,48.6 L505.9,48.6 C505.7,46.4 505.2,44.8 504.3,43.8 C502.9,42.1 501.1,41.3 498.9,41.3 C496.9,41.3 495.2,42 493.9,43.3 C492.5,44.6 491.7,46.4 491.6,48.6 Z" id="Shape" fill="#231F20" fill-rule="nonzero"></path><path d="M515.7,63.9 L515.7,38.4 L519.6,38.4 L519.6,42.3 C520.6,40.5 521.5,39.3 522.4,38.7 C523.2,38.1 524.2,37.8 525.2,37.8 C526.7,37.8 528.1,38.3 529.6,39.2 L528.1,43.2 C527,42.6 526,42.3 524.9,42.3 C523.9,42.3 523.1,42.6 522.4,43.2 C521.6,43.8 521.1,44.6 520.8,45.6 C520.3,47.1 520.1,48.8 520.1,50.7 L520.1,64.1 L515.7,64.1 L515.7,63.9 Z" id="Path" fill="#231F20"></path><path d="M548.8,60.7 C547.2,62.1 545.6,63 544.2,63.6 C542.7,64.2 541.1,64.4 539.4,64.4 C536.6,64.4 534.4,63.7 532.9,62.3 C531.4,60.9 530.6,59.2 530.6,57 C530.6,55.7 530.9,54.6 531.5,53.6 C532.1,52.6 532.8,51.7 533.7,51.1 C534.6,50.5 535.7,50 536.8,49.7 C537.6,49.5 538.9,49.3 540.6,49.1 C544.1,48.7 546.7,48.2 548.3,47.6 C548.3,47 548.3,46.6 548.3,46.5 C548.3,44.7 547.9,43.5 547.1,42.8 C546,41.8 544.3,41.3 542.2,41.3 C540.2,41.3 538.7,41.7 537.7,42.4 C536.7,43.1 536,44.4 535.5,46.2 L531.3,45.6 C531.7,43.8 532.3,42.3 533.2,41.2 C534.1,40.1 535.4,39.2 537,38.6 C538.7,38 540.6,37.7 542.8,37.7 C545,37.7 546.8,38 548.1,38.5 C549.5,39 550.5,39.7 551.1,40.4 C551.7,41.2 552.2,42.2 552.4,43.3 C552.5,44 552.6,45.4 552.6,47.3 L552.6,53.1 C552.6,57.1 552.7,59.7 552.9,60.7 C553.1,61.8 553.4,62.8 554,63.8 L549.5,63.8 C549.2,63 548.9,61.9 548.8,60.7 Z M548.4,51 C546.8,51.6 544.5,52.2 541.3,52.6 C539.5,52.9 538.3,53.1 537.5,53.5 C536.8,53.8 536.2,54.3 535.8,54.9 C535.4,55.5 535.2,56.2 535.2,57 C535.2,58.2 535.6,59.1 536.5,59.9 C537.4,60.7 538.7,61.1 540.3,61.1 C542,61.1 543.5,60.7 544.7,60 C546,59.3 546.9,58.3 547.6,57 C548.1,56 548.3,54.6 548.3,52.7 L548.3,51 L548.4,51 Z" id="Shape" fill="#231F20" fill-rule="nonzero"></path><path d="M576.2,54.5 L580.5,55.1 C580,58 578.8,60.3 576.9,62 C575,63.7 572.6,64.5 569.8,64.5 C566.3,64.5 563.5,63.4 561.4,61.1 C559.3,58.8 558.2,55.5 558.2,51.3 C558.2,48.5 558.7,46.1 559.6,44.1 C560.5,42 561.9,40.5 563.8,39.4 C565.7,38.4 567.7,37.8 569.9,37.8 C572.7,37.8 574.9,38.5 576.7,39.9 C578.5,41.3 579.6,43.3 580.1,45.9 L575.9,46.5 C575.5,44.8 574.8,43.5 573.8,42.6 C572.8,41.7 571.6,41.3 570.1,41.3 C567.9,41.3 566.1,42.1 564.8,43.6 C563.4,45.2 562.8,47.6 562.8,51 C562.8,54.4 563.5,56.9 564.8,58.5 C566.1,60.1 567.8,60.8 569.9,60.8 C571.6,60.8 573,60.3 574.2,59.2 C575.2,58.3 575.9,56.7 576.2,54.5 Z" id="Path" fill="#231F20"></path><path d="M593.6,60 L594.2,63.8 C593,64.1 591.9,64.2 590.9,64.2 C589.3,64.2 588.1,63.9 587.2,63.5 C586.3,63 585.7,62.3 585.4,61.5 C585,60.7 584.9,59 584.9,56.4 L584.9,41.7 L581.7,41.7 L581.7,38.3 L584.9,38.3 L584.9,32 L589.2,29.4 L589.2,38.3 L593.6,38.3 L593.6,41.7 L589.2,41.7 L589.2,56.6 C589.2,57.8 589.3,58.6 589.4,59 L590.1,59.8 C590.4,60 590.9,60.1 591.6,60.1 C592.2,60.2 592.8,60.1 593.6,60 Z" id="Path" fill="#231F20"></path></g></g><g id="Group" transform="translate(305.000000, 128.000000)" fill="#231F20"><polygon id="Path" points="0.1 56.7 0.1 0.4 31.2 0.4 31.2 7 6.2 7 6.2 24.4 27.8 24.4 27.8 31 6.2 31 6.2 56.6 0.1 56.6"></polygon><path d="M60,51.6 C58.1,53.6 56.1,55.1 54.1,56.1 C52.1,57.1 49.9,57.6 47.7,57.6 C44.2,57.6 41.4,56.6 39.4,54.5 C37.3,52.4 36.3,49.6 36.3,46 C36.3,43.6 36.8,41.6 37.8,39.7 C38.8,37.9 40.1,36.5 41.8,35.4 C43.5,34.4 46,33.6 49.5,33.1 C54.1,32.4 57.5,31.6 59.6,30.7 L59.6,28.9 C59.6,26.1 59.1,24.2 58.1,23 C56.7,21.4 54.5,20.5 51.6,20.5 C49,20.5 47,21 45.7,22.1 C44.4,23.2 43.4,25.2 42.8,28.3 L37.2,27.4 C38,23 39.6,19.8 42,17.8 C44.4,15.8 47.9,14.8 52.4,14.8 C55.9,14.8 58.7,15.5 60.7,16.8 C62.7,18.1 64,19.7 64.5,21.7 C65,23.6 65.3,26.5 65.3,30.2 L65.3,39.4 C65.3,45.8 65.4,49.9 65.7,51.6 C65.9,53.3 66.4,54.9 67.1,56.5 L61.2,56.5 C60.6,55.3 60.2,53.6 60,51.6 Z M59.6,36.2 C57.5,37.2 54.4,38.1 50.3,38.8 C47.9,39.2 46.3,39.7 45.3,40.2 C44.4,40.7 43.6,41.5 43.1,42.4 C42.6,43.4 42.3,44.5 42.3,45.7 C42.3,47.6 42.9,49.2 44.1,50.4 C45.3,51.6 47,52.1 49.1,52.1 C51.1,52.1 53,51.6 54.6,50.5 C56.3,49.5 57.5,48 58.3,46.3 C59.1,44.6 59.5,42 59.5,38.6 L59.5,36.2 L59.6,36.2 Z" id="Shape" fill-rule="nonzero"></path><path d="M74.1,56.7 L74.1,15.9 L79.2,15.9 L79.2,21.7 C80.4,19.5 81.9,17.8 83.7,16.7 C85.5,15.6 87.5,15 89.8,15 C91.6,15 93.2,15.4 94.8,16.1 C96.3,16.8 97.5,17.7 98.5,18.9 C99.4,20 100.1,21.5 100.6,23.3 C101.1,25.1 101.3,27.9 101.3,31.7 L101.3,56.8 L95.7,56.8 L95.7,32 C95.7,29 95.4,26.8 94.9,25.4 C94.4,24 93.6,22.9 92.5,22.2 C91.4,21.4 90.1,21.1 88.7,21.1 C86,21.1 83.8,22.1 82.2,24.1 C80.6,26.1 79.8,29.6 79.8,34.5 L79.8,56.8 L74.1,56.8 L74.1,56.7 Z" id="Path"></path><path d="M122.5,50.5 L123.3,56.6 C121.7,57 120.3,57.2 119.1,57.2 C117.1,57.2 115.5,56.8 114.3,56 C113.1,55.2 112.3,54.1 111.8,52.8 C111.4,51.4 111.1,48.7 111.1,44.7 L111.1,21.2 L107,21.2 L107,15.8 L111.1,15.8 L111.1,5.7 L116.7,1.6 L116.7,15.8 L122.4,15.8 L122.4,21.2 L116.7,21.2 L116.7,45 C116.7,47.2 116.9,48.6 117.2,49.3 C117.7,50.2 118.6,50.7 119.9,50.7 C120.7,50.8 121.5,50.7 122.5,50.5 Z" id="Path"></path><path d="M149.6,51.6 C147.7,53.6 145.7,55.1 143.7,56.1 C141.7,57.1 139.5,57.6 137.3,57.6 C133.8,57.6 131,56.6 129,54.5 C126.9,52.4 125.9,49.6 125.9,46 C125.9,43.6 126.4,41.6 127.4,39.7 C128.4,37.9 129.7,36.5 131.4,35.4 C133.1,34.4 135.6,33.6 139.1,33.1 C143.7,32.4 147.1,31.6 149.2,30.7 L149.2,28.9 C149.2,26.1 148.7,24.2 147.7,23 C146.3,21.4 144.1,20.5 141.2,20.5 C138.6,20.5 136.6,21 135.3,22.1 C134,23.2 133,25.2 132.4,28.3 L126.8,27.4 C127.6,23 129.2,19.8 131.6,17.8 C134,15.8 137.5,14.8 142,14.8 C145.5,14.8 148.3,15.5 150.3,16.8 C152.3,18.1 153.6,19.7 154.1,21.7 C154.6,23.6 154.9,26.5 154.9,30.2 L154.9,39.4 C154.9,45.8 155,49.9 155.3,51.6 C155.5,53.3 156,54.9 156.7,56.5 L150.8,56.5 C150.2,55.3 149.8,53.6 149.6,51.6 Z M149.2,36.2 C147.1,37.2 144,38.1 139.9,38.8 C137.5,39.2 135.9,39.7 134.9,40.2 C134,40.7 133.2,41.5 132.7,42.4 C132.2,43.4 131.9,44.5 131.9,45.7 C131.9,47.6 132.5,49.2 133.7,50.4 C134.9,51.6 136.6,52.1 138.7,52.1 C140.7,52.1 142.6,51.6 144.2,50.5 C145.8,49.5 147.1,48 147.9,46.3 C148.7,44.6 149.1,42 149.1,38.6 L149.1,36.2 L149.2,36.2 Z" id="Shape" fill-rule="nonzero"></path><path d="M161.5,44.5 L167.1,43.4 C167.4,46.3 168.3,48.4 169.8,49.8 C171.3,51.2 173.2,51.9 175.7,51.9 C178.2,51.9 180,51.3 181.4,50.1 C182.7,48.9 183.4,47.3 183.4,45.5 C183.4,43.9 182.8,42.6 181.7,41.7 C180.9,41.1 179,40.3 175.9,39.4 C171.5,38 168.6,36.9 167.1,35.9 C165.6,35 164.5,33.7 163.6,32.1 C162.8,30.5 162.4,28.7 162.4,26.7 C162.4,23.2 163.5,20.4 165.7,18.2 C167.9,16 171,14.9 175,14.9 C177.5,14.9 179.7,15.3 181.5,16.2 C183.4,17.1 184.8,18.3 185.8,19.8 C186.8,21.3 187.5,23.5 187.9,26.3 L182.4,27.2 C181.9,22.7 179.5,20.5 175.1,20.5 C172.6,20.5 170.8,21 169.6,22 C168.4,23 167.8,24.2 167.8,25.8 C167.8,27.3 168.4,28.5 169.5,29.4 C170.2,29.9 172.2,30.7 175.7,31.9 C180.4,33.4 183.4,34.6 184.8,35.5 C186.2,36.4 187.2,37.6 188,39.1 C188.8,40.6 189.1,42.4 189.1,44.5 C189.1,48.4 187.9,51.5 185.4,54 C182.9,56.4 179.6,57.6 175.3,57.6 C167.5,57.6 162.8,53.2 161.5,44.5 Z" id="Path"></path><path d="M195.8,72.4 L195.2,65.9 C196.5,66.3 197.5,66.5 198.4,66.5 C199.6,66.5 200.6,66.3 201.4,65.8 C202.2,65.3 202.8,64.6 203.3,63.5 C203.5,63.1 204.2,60.9 205.5,56.7 L192.8,15.9 L198.9,15.9 L205.9,39.5 C206.8,42.4 207.6,45.6 208.3,48.9 C208.9,45.7 209.7,42.6 210.6,39.6 L217.7,15.9 L223.4,15.9 L210.7,57.4 C209,62.8 207.7,66.4 206.8,68.2 C205.8,70 204.7,71.3 203.5,72.1 C202.3,72.9 200.9,73.3 199.4,73.3 C198.4,73.2 197.1,72.9 195.8,72.4 Z" id="Path"></path><path d="M260.2,56.7 L242.3,0.4 L248.9,0.4 L260.9,41.3 C261.8,44.5 262.6,47.5 263.3,50.5 C264,47.4 264.8,44.3 265.8,41.3 L278.3,0.4 L284.5,0.4 L266.5,56.7 L260.2,56.7 Z" id="Path"></path><path d="M288,8.3 L288,0.4 L293.6,0.4 L293.6,8.3 L288,8.3 Z M288,56.7 L288,15.9 L293.6,15.9 L293.6,56.7 L288,56.7 Z" id="Shape" fill-rule="nonzero"></path><path d="M300.2,36.3 C300.2,29.3 301.7,24 304.6,20.4 C307.6,16.8 311.3,15 315.8,15 C320.3,15 324,16.8 327,20.4 C330,24 331.5,29.2 331.5,35.9 C331.5,43.2 330,48.7 327.1,52.3 C324.2,55.9 320.4,57.7 315.9,57.7 C311.4,57.7 307.7,55.9 304.7,52.3 C301.7,48.6 300.2,43.3 300.2,36.3 Z M306,36.3 C306,41.6 307,45.5 308.9,48.1 C310.8,50.7 313.2,52 316,52 C318.7,52 320.9,50.7 322.8,48.1 C324.7,45.5 325.7,41.6 325.7,36.4 C325.7,31.2 324.7,27.2 322.8,24.7 C320.9,22.1 318.5,20.8 315.7,20.8 C313,20.8 310.7,22.1 308.8,24.7 C306.9,27.1 306,31 306,36.3 Z" id="Shape" fill-rule="nonzero"></path><polygon id="Path" points="338 56.7 338 0.4 343.6 0.4 343.6 56.7"></polygon><path d="M375.3,43.5 L381.1,44.4 C380.1,48.7 378.4,52 375.8,54.2 C373.3,56.4 370.1,57.5 366.3,57.5 C361.6,57.5 357.7,55.7 354.8,52.1 C351.9,48.5 350.4,43.3 350.4,36.5 C350.4,29.5 351.9,24.1 354.8,20.4 C357.8,16.7 361.5,14.9 366,14.9 C370.3,14.9 373.9,16.7 376.8,20.3 C379.7,23.9 381.1,29.2 381.1,36.1 L381.1,37.9 L356.2,37.9 C356.4,42.5 357.5,45.9 359.4,48.3 C361.3,50.6 363.6,51.8 366.3,51.8 C370.7,51.9 373.7,49.1 375.3,43.5 Z M356.7,32.4 L375.4,32.4 C375.1,28.9 374.4,26.2 373.1,24.5 C371.3,22 369,20.7 366.2,20.7 C363.7,20.7 361.5,21.8 359.7,23.9 C357.9,25.9 356.9,28.8 356.7,32.4 Z" id="Shape" fill-rule="nonzero"></path><path d="M388.3,56.7 L388.3,15.9 L393.4,15.9 L393.4,21.7 C394.6,19.5 396.1,17.8 397.9,16.7 C399.7,15.6 401.7,15 404,15 C405.8,15 407.4,15.4 409,16.1 C410.5,16.8 411.7,17.7 412.7,18.9 C413.6,20 414.3,21.5 414.8,23.3 C415.3,25.1 415.5,27.9 415.5,31.7 L415.5,56.8 L409.9,56.8 L409.9,32 C409.9,29 409.6,26.8 409.1,25.4 C408.6,24 407.8,22.9 406.7,22.2 C405.6,21.4 404.4,21.1 402.9,21.1 C400.2,21.1 398,22.1 396.4,24.1 C394.8,26.1 394,29.6 394,34.5 L394,56.8 L388.3,56.8 L388.3,56.7 Z" id="Path"></path><path d="M446.1,41.7 L451.7,42.6 C451.1,47.5 449.5,51.2 446.9,53.7 C444.3,56.3 441.2,57.5 437.6,57.5 C433.2,57.5 429.6,55.7 426.8,52.1 C424,48.5 422.6,43.2 422.6,36.1 C422.6,29 424,23.7 426.9,20.1 C429.8,16.6 433.4,14.8 437.9,14.8 C441.4,14.8 444.3,15.9 446.6,18 C449,20.1 450.5,23.4 451.2,27.7 L445.7,28.7 C445.2,25.9 444.2,23.9 442.9,22.5 C441.6,21.1 440,20.5 438.1,20.5 C435.3,20.5 433,21.7 431.2,24.2 C429.4,26.7 428.5,30.6 428.5,36 C428.5,41.6 429.4,45.6 431.1,48.1 C432.9,50.6 435.1,51.8 437.8,51.8 C439.9,51.8 441.8,51 443.3,49.3 C444.7,47.8 445.7,45.2 446.1,41.7 Z" id="Path"></path><path d="M479.3,43.5 L485.1,44.4 C484.1,48.7 482.4,52 479.8,54.2 C477.3,56.4 474.1,57.5 470.3,57.5 C465.6,57.5 461.7,55.7 458.8,52.1 C455.9,48.5 454.4,43.3 454.4,36.5 C454.4,29.5 455.9,24.1 458.8,20.4 C461.8,16.7 465.5,14.9 470,14.9 C474.3,14.9 477.9,16.7 480.8,20.3 C483.7,23.9 485.1,29.2 485.1,36.1 L485.1,37.9 L460.2,37.9 C460.4,42.5 461.5,45.9 463.4,48.3 C465.3,50.6 467.6,51.8 470.3,51.8 C474.7,51.9 477.6,49.1 479.3,43.5 Z M460.7,32.4 L479.4,32.4 C479.1,28.9 478.4,26.2 477.1,24.5 C475.3,22 473,20.7 470.2,20.7 C467.7,20.7 465.5,21.8 463.7,23.9 C461.8,25.9 460.8,28.8 460.7,32.4 Z" id="Shape" fill-rule="nonzero"></path></g><g id="Group" transform="translate(304.000000, 222.000000)" fill="#231F20"><path d="M0.5,57.1 L0.5,0.8 L9.7,0.8 L20.7,40.6 L22.9,48.9 C23.4,46.8 24.3,43.8 25.4,39.9 L36.5,0.7 L44.7,0.7 L44.7,57 L38.8,57 L38.8,10 L25.3,57.1 L19.8,57.1 L6.4,9.2 L6.4,57.1 L0.5,57.1 Z" id="Path"></path><path d="M53.6,8.8 L53.6,0.9 L59.2,0.9 L59.2,8.8 L53.6,8.8 Z M53.6,57.1 L53.6,16.3 L59.2,16.3 L59.2,57.1 L53.6,57.1 Z" id="Shape" fill-rule="nonzero"></path><polygon id="Path" points="67.7 57.1 67.7 0.8 73.3 0.8 73.3 57.1"></polygon><path d="M103.9,57.1 L103.9,52 C102.9,54 101.6,55.5 99.9,56.5 C98.3,57.5 96.6,58.1 94.7,58.1 C90.8,58.1 87.3,56.2 84.5,52.5 C81.6,48.8 80.2,43.5 80.2,36.8 C80.2,32.2 80.8,28.2 82.1,25 C83.4,21.8 85.1,19.4 87.2,17.8 C89.3,16.2 91.7,15.5 94.3,15.5 C96.2,15.5 97.9,16 99.5,17 C101.1,18 102.4,19.4 103.5,21.1 L103.5,0.9 L109.2,0.9 L109.2,57.2 L103.9,57.2 L103.9,57.1 Z M85.9,36.7 C85.9,42 86.8,45.9 88.6,48.4 C90.4,51 92.6,52.2 95,52.2 C97.4,52.2 99.5,51 101.3,48.5 C103.1,46 103.9,42.3 103.9,37.4 C103.9,31.7 103,27.5 101.3,24.9 C99.5,22.3 97.3,21 94.6,21 C92.2,21 90.2,22.3 88.5,24.8 C86.8,27.4 85.9,31.3 85.9,36.7 Z" id="Shape" fill-rule="nonzero"></path><polygon id="Path" points="136.4 57.1 136.4 0.8 142.5 0.8 142.5 50.4 165.2 50.4 165.2 57 136.4 57"></polygon><path d="M193.6,52.1 C191.7,54.1 189.7,55.6 187.7,56.6 C185.7,57.6 183.5,58.1 181.3,58.1 C177.8,58.1 175,57.1 173,55 C170.9,52.9 169.9,50.1 169.9,46.5 C169.9,44.1 170.4,42.1 171.4,40.2 C172.4,38.4 173.7,37 175.4,35.9 C177.1,34.9 179.6,34.1 183.1,33.6 C187.7,32.9 191.1,32.1 193.2,31.2 L193.2,29.4 C193.2,26.6 192.7,24.7 191.7,23.5 C190.3,21.9 188.1,21 185.2,21 C182.6,21 180.6,21.5 179.3,22.6 C178,23.7 177,25.7 176.4,28.8 L170.8,27.9 C171.6,23.5 173.2,20.3 175.6,18.3 C178,16.3 181.5,15.3 186,15.3 C189.5,15.3 192.3,16 194.3,17.3 C196.3,18.6 197.6,20.2 198.1,22.2 C198.6,24.1 198.9,27 198.9,30.7 L198.9,39.9 C198.9,46.3 199,50.4 199.3,52.1 C199.5,53.8 200,55.4 200.7,57 L194.8,57 C194.2,55.7 193.8,54 193.6,52.1 Z M193.1,36.6 C191,37.6 187.9,38.5 183.8,39.2 C181.4,39.6 179.8,40.1 178.8,40.6 C177.9,41.1 177.1,41.9 176.6,42.8 C176.1,43.8 175.8,44.9 175.8,46.1 C175.8,48 176.4,49.6 177.6,50.8 C178.8,52 180.5,52.5 182.6,52.5 C184.6,52.5 186.5,52 188.1,50.9 C189.8,49.9 191,48.4 191.8,46.7 C192.6,45 193,42.4 193,39 L193,36.6 L193.1,36.6 Z" id="Shape" fill-rule="nonzero"></path><path d="M207.7,57.1 L207.7,16.3 L212.8,16.3 L212.8,22.1 C214,19.9 215.5,18.2 217.3,17.1 C219.1,16 221.1,15.4 223.4,15.4 C225.2,15.4 226.8,15.8 228.4,16.5 C229.9,17.2 231.1,18.1 232.1,19.3 C233,20.4 233.7,21.9 234.2,23.7 C234.7,25.5 234.9,28.3 234.9,32.1 L234.9,57.2 L229.3,57.2 L229.3,32.4 C229.3,29.4 229,27.2 228.5,25.8 C228,24.4 227.2,23.3 226.1,22.6 C225,21.8 223.7,21.5 222.3,21.5 C219.6,21.5 217.4,22.5 215.8,24.5 C214.2,26.5 213.4,30 213.4,34.9 L213.4,57.2 L207.7,57.2 L207.7,57.1 Z" id="Path"></path><path d="M242.4,60.5 L247.9,61.5 C248.2,63.7 248.9,65.3 250.2,66.4 C251.5,67.5 253.3,68 255.5,68 C258,68 260,67.4 261.4,66.2 C262.9,65 263.9,63.2 264.4,60.9 C264.7,59.5 264.9,56.4 264.9,51.8 C263.7,53.5 262.3,54.9 260.8,55.8 C259.3,56.7 257.6,57.1 255.7,57.1 C251.7,57.1 248.4,55.4 245.8,52 C242.8,48.1 241.3,42.9 241.3,36.4 C241.3,32 242,28.2 243.3,24.9 C244.6,21.6 246.4,19.2 248.5,17.7 C250.7,16.2 253.1,15.4 255.8,15.4 C257.8,15.4 259.6,15.9 261.2,16.8 C262.8,17.8 264.3,19.2 265.5,21.1 L265.5,16.2 L270.7,16.2 L270.7,51.4 C270.7,57.7 270.2,62.1 269.2,64.8 C268.2,67.5 266.5,69.6 264.2,71.1 C261.9,72.7 259.1,73.4 255.8,73.4 C251.5,73.4 248.2,72.2 245.8,69.9 C243.5,67.8 242.3,64.6 242.4,60.5 Z M247.1,36 C247.1,41.4 248,45.3 249.8,47.7 C251.6,50.2 253.7,51.4 256.3,51.4 C258.9,51.4 261,50.2 262.8,47.8 C264.6,45.4 265.5,41.6 265.5,36.3 C265.5,31.2 264.6,27.4 262.7,24.9 C260.9,22.4 258.6,21.1 256,21.1 C253.6,21.1 251.6,22.4 249.8,24.9 C248,27.3 247.1,31.1 247.1,36 Z" id="Shape" fill-rule="nonzero"></path><path d="M301.3,57.1 L301.3,51.1 C300,53.4 298.5,55.1 296.7,56.3 C294.9,57.5 292.9,58 290.7,58 C288.1,58 285.8,57.3 283.9,55.9 C282,54.5 280.8,52.7 280.2,50.5 C279.6,48.3 279.3,45.4 279.3,41.6 L279.3,16.3 L284.9,16.3 L284.9,38.9 C284.9,43.1 285.1,45.9 285.5,47.3 C285.9,48.7 286.7,49.9 287.8,50.7 C288.9,51.6 290.2,52 291.7,52 C294.4,52 296.6,50.9 298.4,48.7 C299.9,46.8 300.6,43.3 300.6,38.1 L300.6,16.3 L306.3,16.3 L306.3,57.1 L301.3,57.1 Z" id="Path"></path><path d="M337,52.1 C335.1,54.1 333.1,55.6 331.1,56.6 C329.1,57.6 326.9,58.1 324.7,58.1 C321.2,58.1 318.4,57.1 316.4,55 C314.3,52.9 313.3,50.1 313.3,46.5 C313.3,44.1 313.8,42.1 314.8,40.2 C315.8,38.4 317.1,37 318.8,35.9 C320.5,34.9 323,34.1 326.5,33.6 C331.1,32.9 334.5,32.1 336.6,31.2 L336.6,29.4 C336.6,26.6 336.1,24.7 335.1,23.5 C333.7,21.9 331.5,21 328.6,21 C326,21 324,21.5 322.7,22.6 C321.4,23.7 320.4,25.7 319.8,28.8 L314.2,27.9 C315,23.5 316.6,20.3 319,18.3 C321.4,16.3 324.9,15.3 329.4,15.3 C332.9,15.3 335.7,16 337.7,17.3 C339.7,18.6 341,20.2 341.5,22.2 C342,24.1 342.3,27 342.3,30.7 L342.3,39.9 C342.3,46.3 342.4,50.4 342.7,52.1 C342.9,53.8 343.4,55.4 344.1,57 L338.2,57 C337.6,55.7 337.2,54 337,52.1 Z M336.5,36.6 C334.4,37.6 331.3,38.5 327.2,39.2 C324.8,39.6 323.2,40.1 322.2,40.6 C321.3,41.1 320.5,41.9 320,42.8 C319.5,43.8 319.2,44.9 319.2,46.1 C319.2,48 319.8,49.6 321,50.8 C322.2,52 323.9,52.5 326,52.5 C328,52.5 329.9,52 331.5,50.9 C333.2,49.9 334.4,48.4 335.2,46.7 C336,45 336.4,42.4 336.4,39 L336.4,36.6 L336.5,36.6 Z" id="Shape" fill-rule="nonzero"></path><path d="M350,60.5 L355.5,61.5 C355.8,63.7 356.5,65.3 357.8,66.4 C359.1,67.5 360.9,68 363.1,68 C365.6,68 367.6,67.4 369,66.2 C370.5,65 371.5,63.2 372,60.9 C372.3,59.5 372.5,56.4 372.5,51.8 C371.3,53.5 369.9,54.9 368.4,55.8 C366.9,56.7 365.2,57.1 363.3,57.1 C359.3,57.1 356,55.4 353.4,52 C350.4,48.1 348.9,42.9 348.9,36.4 C348.9,32 349.6,28.2 350.9,24.9 C352.2,21.6 354,19.2 356.1,17.7 C358.3,16.2 360.7,15.4 363.4,15.4 C365.4,15.4 367.2,15.9 368.8,16.8 C370.4,17.8 371.9,19.2 373.1,21.1 L373.1,16.2 L378.3,16.2 L378.3,51.4 C378.3,57.7 377.8,62.1 376.8,64.8 C375.8,67.5 374.1,69.6 371.8,71.1 C369.5,72.7 366.7,73.4 363.4,73.4 C359.1,73.4 355.8,72.2 353.4,69.9 C351,67.8 349.9,64.6 350,60.5 Z M354.6,36 C354.6,41.4 355.5,45.3 357.3,47.7 C359.1,50.2 361.2,51.4 363.8,51.4 C366.4,51.4 368.5,50.2 370.3,47.8 C372.1,45.4 373,41.6 373,36.3 C373,31.2 372.1,27.4 370.2,24.9 C368.4,22.4 366.1,21.1 363.5,21.1 C361.1,21.1 359.1,22.4 357.3,24.9 C355.5,27.3 354.6,31.1 354.6,36 Z" id="Shape" fill-rule="nonzero"></path><path d="M409.8,44 L415.6,44.9 C414.6,49.2 412.9,52.5 410.3,54.7 C407.7,56.9 404.6,58 400.8,58 C396.1,58 392.2,56.2 389.3,52.6 C386.4,49 384.9,43.8 384.9,37 C384.9,30 386.4,24.6 389.3,20.9 C392.3,17.2 396,15.4 400.5,15.4 C404.8,15.4 408.4,17.2 411.3,20.8 C414.2,24.4 415.6,29.7 415.6,36.6 L415.6,38.4 L390.7,38.4 C390.9,43 392,46.4 393.9,48.8 C395.8,51.1 398.1,52.3 400.8,52.3 C405.2,52.3 408.1,49.5 409.8,44 Z M391.2,32.8 L409.9,32.8 C409.6,29.3 408.9,26.6 407.6,24.9 C405.8,22.4 403.5,21.1 400.7,21.1 C398.2,21.1 396,22.2 394.2,24.3 C392.3,26.4 391.3,29.2 391.2,32.8 Z" id="Shape" fill-rule="nonzero"></path></g></g></g></g></svg> 